PathFileType	4	(X/Y/Z)	C:/Users/beibeiliu/ov580/test_trc\sequence.38_training_dense_left.trc
DataRate	CameraRate	NumFrames	NumMarkers	Units	OrigDataRate	OrigDataStartFrame	OrigNumFrames
120	120	14	19	mm	120	53	79
Frame#	Time	ThumbCMC			ThumbMCP			ThumbIP			ThumbTip			IndexMCP			IndexPIP			IndexTip			MiddleMCP			MiddlePIP			MiddleTip			RingMCP			RingPIP			RingTip			PinkyMCP			PinkyPIP			PinkyTip			BackHand1			BackHand2			BackHand3	
		X0	Y0	Z0	X1	Y1	Z1	X2	Y2	Z2	X3	Y3	Z3	X4	Y4	Z4	X5	Y5	Z5	X6	Y6	Z6	X7	Y7	Z7	X8	Y8	Z8	X9	Y9	Z9	X10	Y10	Z10	X11	Y11	Z11	X12	Y12	Z12	X13	Y13	Z13	X14	Y14	Z14	X15	Y15	Z15	X16	Y16	Z16	X17	Y17	Z17	X18	Y18	Z18	
52	0.433333	-110.853	56.608	150.627	-88.2226	37.2764	144.939	-78.5398	16.1497	117.11	-94.1194	1.81461	101.283	-80.8414	31.127	88.3308	-67.9805	15.3019	74.5546	-58.6664	-0.554469	56.0709	-90.7678	18.0732	73.1506	-77.3343	6.2075	63.2341	-61.8368	-11.585	44.8896	-110.118	10.7652	75.157	-93.4326	-3.01267	61.5719	-81.6946	-17.9579	43.5261	-127.094	3.9905	80.0118	-110.989	-8.4515	67.9944	-100.013	-15.8526	47.599	-139.199	42.6869	100.427	-161.98	59.3816	117.719	-121.903	66.6653	117.23	
53	0.441667	-123.816	78.098	146.215	-93.2589	63.5302	135.884	-79.3711	43.3323	117.168	-89.204	23.25	105.498	-87.362	53.3612	84.529	-67.3491	39.8326	72.6284	-53.7898	27.4226	60.5377	-90.2081	38.0349	73.0772	-73.2242	23.9573	60.7204	-55.4254	8.89812	47.1851	-103.462	25.0183	75.8907	-88.7974	10.6488	64.825	-70.5917	1.32215	51.758	-120.495	13.2824	84.3731	-101.423	4.23117	74.202	-88.4338	-2.98036	57.2854	-152.209	45.026	97.8001	-170.836	56.1579	113.238	-137.935	76.7954	109.762	
54	0.45	-136.27	88.0577	134.301	-107.786	82.6042	129.792	-87.6663	65.9066	112.057	-90.6522	41.6985	103.279	-96.1015	67.0263	77.7395	-71.6345	58.0114	65.3377	-56.4118	48.6254	56.299	-98.7875	46.8205	69.2217	-73.9655	40.838	57.8689	-52.0131	31.5311	44.2056	-106.459	30.5017	74.2139	-84.0642	21.4104	61.5241	-63.4077	18.2759	51.2948	-114.316	18.5603	82.826	-96.0014	14.1809	74.1331	-77.9402	10.2875	59.8145	-153.982	42.0717	94.1555	-177.37	46.8796	112.77	-152.436	76.9268	105.33	
55	0.458333	-153.716	89.0234	125.014	-122.504	94.2939	115.831	-103.35	80.1681	102.024	-94.4367	54.6023	93.6412	-111.123	75.4391	68.8445	-85.542	72.6799	57.411	-65.2719	66.6649	45.6899	-106.008	58.0785	61.9625	-82.1416	56.8705	49.085	-61.0594	49.4968	37.9948	-109.411	41.8343	70.3071	-82.7766	36.3194	55.9181	-63.6259	36.1512	45.413	-112.747	23.8139	80.8052	-95.1401	26.4676	72.3667	-72.9941	22.0792	53.9922	-155.51	40.4891	92.6322	-178.088	41.2232	107.69	-168.916	70.8409	97.2254	
56	0.466667	-173.263	84.5644	110.624	-146.499	97.3411	99.3154	-121.974	89.1252	84.1123	-107.908	65.7497	82.3103	-129.311	75.7907	53.0159	-107.553	79.665	41.4044	-88.0376	78.3576	29.4011	-118.628	57.8445	49.7829	-95.6485	60.0691	37.0539	-72.3689	59.292	22.496	-116.325	42.8377	63.1414	-90.8622	44.4492	48.0035	-72.359	50.2878	32.6246	-117	28.9814	78.6607	-99.5081	33.3783	66.8177	-80.2495	32.0029	47.1312	-155.957	27.639	85.9101	-182.248	23.3765	106.949	-178.442	58.7659	88.3044	
57	0.475	-195.278	63.1223	106.191	-176.114	80.2964	88.0749	-149.92	74.1079	71.4161	-132.135	58.6076	72.0314	-152.753	59.7991	40.2895	-133.67	64.1075	26.4872	-115.188	68.0783	10.7585	-138.283	43.3533	40.5549	-121.806	49.608	27.3149	-97.8081	55.5134	5.68341	-128.376	34.9952	50.8111	-111.901	40.4442	36.0031	-96.1747	46.1447	21.1494	-123.998	22.4191	71.3039	-107.571	28.1738	54.7652	-96.5266	27.7554	36.5951	-162.757	12.9893	88.2639	-185.354	8.01158	106.587	-193.594	32.0872	86.7177	
58	0.483333	-217.272	36.8593	103.514	-201.645	52.224	80.9069	-182.061	52.706	61.2041	-156.008	38.8909	59.0514	-181.524	27.2933	36.7708	-166.239	34.0057	17.8027	-147.35	39.2115	-4.07196	-162.789	16.3473	37.164	-146.931	25.6749	13.4046	-131.909	30.9486	-8.97315	-150.245	9.70746	47.7452	-134.838	17.1728	26.2096	-124.321	24.1884	7.76091	-138.651	4.81415	64.8989	-129.912	12.3607	47.1776	-118.068	13.3607	23.6423	-175.043	-7.0517	85.6333	-188.672	-16.1527	113.908	-205.589	1.52268	88.5152	
59	0.491667	-234.202	12.1176	107.663	-223.644	26.5339	80.6151	-207.028	26.5814	57.9395	-180.788	15.8623	54.8105	-207.467	-1.90765	32.5418	-197.762	5.00226	10.0008	-182.584	6.82095	-5.49935	-186.053	-12.1581	32.7851	-178.871	-5.58405	12.0078	-163.089	-0.880455	-12.7082	-171.376	-14.9006	42.024	-162.852	-7.96743	18.9415	-151.194	-3.41329	-5.09938	-158.448	-15.3929	62.9063	-149.784	-9.68894	36.9648	-144.522	-8.04152	18.0959	-185.958	-32.0601	93.376	-196.115	-37.8785	118.071	-223.552	-22.7894	93.875	
60	0.5	-249.057	-2.07047	112.115	-242.498	10.5132	83.8819	-227.189	9.21663	54.6654	-204.27	-1.12279	52.2548	-231.175	-22.3615	42.1499	-222.582	-19.5796	16.523	-209.3	-17.6317	-9.5366	-214.344	-30.6323	34.6721	-204.824	-27.0337	13.2583	-197.666	-24.2797	-18.5724	-194.448	-33.5123	42.8089	-185.879	-29.851	18.5129	-182.517	-25.3793	-4.93579	-180.537	-31.3373	59.1203	-173.058	-28.9039	36.6109	-169.272	-31.9295	14.0264	-204.197	-44.5441	90.646	-210.92	-48.2338	123.146	-233.544	-37.5545	101.315	
61	0.508333	-259.743	-0.85341	114.636	-255.566	12.5941	85.7509	-243.998	10.2957	58.7719	-218.9	-4.63298	48.6019	-248.801	-26.3354	45.7783	-243.796	-24.9092	18.442	-238.83	-24.1077	-6.44199	-233.931	-35.1499	35.5625	-226.637	-33.7558	10.5385	-222.537	-32.9885	-17.1833	-212.567	-39.7855	44.4639	-210.91	-37.3137	18.5401	-204.77	-36.5375	-7.89862	-196.651	-40.3863	55.3277	-195.37	-37.3057	33.1439	-195.255	-38.6102	11.211	-218.97	-48.2636	91.8424	-223.338	-49.6578	121.787	-254.342	-38.035	106.814	
62	0.516667	-260.833	12.7908	120.397	-255.947	25.2542	88.5565	-246.679	22.5906	65.5161	-225.686	2.74328	53.7366	-261.98	-10.9933	45.7227	-259.256	-9.58314	22.9971	-251.232	-11.8704	-4.31705	-248.899	-23.1984	39.8807	-245.879	-21.0976	11.5847	-239.266	-23.9419	-13.8436	-229.671	-31.8442	43.0097	-229.886	-29.4735	20.5498	-225.681	-28.9569	-8.559	-213.49	-35.5603	56.3159	-211.732	-33.532	33.4896	-213.765	-37.4526	9.36324	-236.465	-41.1534	97.7259	-237.717	-41.3053	123.94	-262.263	-24.2561	109.201	
63	0.525	-252.696	31.0045	124.788	-247.075	46.3209	96.5974	-239.496	41.5091	70.3101	-224.26	19.8078	58.0521	-263.335	16.3193	51.0798	-260.346	18.2181	24.4764	-257.206	16.7879	-0.470076	-253.336	-0.225358	40.8165	-251.553	3.3034	17.565	-249.603	5.14591	-11.9394	-238.866	-11.9234	47.484	-238.235	-8.05313	20.377	-235.654	-8.11415	-5.00065	-224.344	-20.0676	59.0478	-221.647	-18.9181	34.8513	-228.878	-16.9259	11.023	-244.808	-22.4912	96.8071	-243.156	-31.7326	125.401	-266.543	-2.23046	110.204	
64	0.533333	-238.176	46.3273	127.494	-227.386	65.1101	104.253	-224.082	60.9071	70.1968	-216.31	37.5915	60.2222	-253.849	44.5991	52.9791	-251.488	49.0843	27.5314	-250.285	50.5172	7.06781	-251.722	29.6994	44.0458	-247.361	32.1973	17.0848	-245.805	34.3004	-10.3511	-240.466	9.91449	44.4997	-239.224	15.6368	21.9858	-238.318	21.8492	-4.72548	-228.333	0.00572635	56.2701	-228.096	2.53927	33.2356	-232.493	1.89737	11.0914	-246.651	-3.6719	95.1665	-246.761	-10.7411	123.016	-258.726	23.1991	113.576	
65	0.541667	-216.997	57.8615	130.333	-204.747	72.2636	102.936	-200.399	71.4041	78.7648	-203.892	49.7418	58.9674	-235.407	69.1253	61.5114	-231.346	72.738	32.774	-231.987	75.0207	7.33586	-238.327	54.7573	46.1818	-234.246	55.4732	19.8384	-233.231	58.0994	-4.66905	-234.132	36.8132	45.4894	-231.875	40.7766	20.7767	-230.873	44.621	-3.98843	-228.023	18.2716	52.0185	-226.517	19.3065	30.8644	-232.79	30.7065	11.0424	-243.65	16.4802	96.1651	-248.868	6.45429	118.11	-247.495	41.4824	115.337	
